<svg width="25" height="31" viewBox="0 0 25 31" fill="none" xmlns="http://www.w3.org/2000/svg">
<mask id="mask0_2_11809" style="mask-type:luminance" maskUnits="userSpaceOnUse" x="0" y="7" width="25" height="24">
<path fill-rule="evenodd" clip-rule="evenodd" d="M0 7.29663H24.79V30.3798H0V7.29663Z" fill="white"/>
</mask>
<g mask="url(#mask0_2_11809)">
<path fill-rule="evenodd" clip-rule="evenodd" d="M20.7154 16.5463C20.5595 13.8771 21.7922 11.8634 23.8941 10.3391C22.358 7.74344 18.6224 6.82172 16.3562 7.52379C15.4707 7.79799 14.5823 8.07689 13.7275 8.43155C12.8909 8.7786 12.099 8.70648 11.2891 8.40528C10.738 8.20013 10.187 7.99425 9.63356 7.79581C7.8753 7.16587 6.14966 7.28693 4.51065 8.14667C1.59217 9.67749 0.201437 12.2379 0.0278219 15.4197C-0.242931 20.3813 1.47492 24.7128 4.63714 28.4731C6.39939 30.5688 7.61288 30.8033 10.1493 29.8245C10.3391 29.7512 10.5234 29.663 10.714 29.5918C12.0725 29.0838 13.4464 28.9941 14.8304 29.4754C15.3643 29.661 15.8821 29.8928 16.4136 30.0852C17.7949 30.5856 19.1097 30.4696 20.2288 29.479C22.4173 27.5415 23.789 25.0722 24.7901 22.3193C22.3666 21.0605 20.8727 19.2421 20.7154 16.5463Z" fill="black"/>
</g>
<path fill-rule="evenodd" clip-rule="evenodd" d="M18.3785 0C14.2235 0.216928 11.7216 4.76699 12.4433 6.90999C15.6269 7.20032 18.9424 3.36937 18.3785 0Z" fill="black"/>
</svg>
