<svg width="120" height="64" viewBox="0 0 120 64" fill="none" xmlns="http://www.w3.org/2000/svg">
<path fill-rule="evenodd" clip-rule="evenodd" d="M105.619 11.9183H115.633V47.782H105.619V11.9183ZM97.0207 6.31289C97.0207 4.31744 97.6374 2.77549 98.8711 1.68706C100.105 0.562354 101.592 0 103.334 0H119.225V7.56459H104.857C104.386 7.56459 104.059 7.65528 103.878 7.8367C103.66 8.0181 103.551 8.32648 103.551 8.76185V11.6462H97.0207V6.31289ZM84.3888 55.6185C86.9284 54.0948 88.7063 52.8611 89.7222 51.9179C90.7381 50.9746 91.3548 50.0495 91.5725 49.1424C91.8265 48.2353 91.9533 46.7659 91.9533 44.7343V25.6867H101.967V44.7343C101.967 48.0357 101.586 50.7388 100.824 52.843C100.099 54.9473 98.7561 56.852 96.797 58.5572C94.8378 60.2988 91.9533 62.1128 88.1439 63.9995L84.3888 55.6185ZM67.7363 46.2021C69.5867 47.3268 71.6546 47.889 73.9403 47.889C76.2624 47.889 78.403 47.3085 80.3621 46.1475C82.3212 44.9867 83.8633 43.4447 84.9879 41.5219C86.149 39.5625 86.7295 37.4219 86.7295 35.1001C86.7295 32.8144 86.149 30.7645 84.9879 28.9505C83.8633 27.1001 82.3212 25.6669 80.3621 24.6512C78.403 23.599 76.2624 23.0729 73.9403 23.0729H58.4302V33.0865H61.9133V34.1205V35.1001V36.0252C61.9133 36.388 61.8043 36.6782 61.5867 36.896C61.4053 37.1136 61.1333 37.2224 60.7704 37.2224H56.8521C56.8266 37.2224 56.802 37.2233 56.7784 37.2251H53.5351C53.2087 37.2251 52.9365 37.1344 52.7189 36.9529C52.5375 36.7353 52.4468 36.4451 52.4468 36.0821V10.613H42.4333V36.7353C42.4333 38.7308 42.9231 40.5811 43.9026 42.2863C44.8822 43.9552 46.2064 45.2975 47.8753 46.3134C49.5444 47.293 51.3945 47.7827 53.4263 47.7827H56.855C56.8796 47.7827 56.9033 47.7819 56.9262 47.7803H60.7704C63.32 47.7803 65.3364 47.039 66.8197 45.5565C67.1136 45.7839 67.4192 45.9991 67.7363 46.2021ZM75.5731 36.7326C75.174 37.1319 74.6296 37.3314 73.9403 37.3314C73.2873 37.3314 72.7612 37.1319 72.3622 36.7326C71.9994 36.2972 71.818 35.7531 71.818 35.1001V33.0865H73.9403C74.6296 33.0865 75.174 33.2678 75.5731 33.6307C75.9721 33.9934 76.1716 34.4832 76.1716 35.1001C76.1716 35.7531 75.9721 36.2972 75.5731 36.7326ZM9.36049 54.2061C12.2267 55.9113 15.3468 56.764 18.721 56.764C22.1314 56.764 25.2696 55.9113 28.1359 54.2061C31.0384 52.5372 33.3241 50.2696 34.993 47.4035C36.6982 44.5373 37.5507 41.4172 37.5507 38.0431V25.6893H27.5373V37.4989C27.5373 39.0226 27.1382 40.4557 26.3399 41.7981C25.5418 43.1404 24.4715 44.2107 23.129 45.009C21.7867 45.8071 20.3174 46.2062 18.721 46.2062C17.1972 46.2062 15.7641 45.8071 14.4217 45.009C13.0793 44.2107 12.009 43.1404 11.2108 41.7981C10.4126 40.4557 10.0135 39.0226 10.0135 37.4989V27.8662H0V38.0431C0 41.4172 0.834463 44.5373 2.5034 47.4035C4.20859 50.2696 6.49429 52.5372 9.36049 54.2061ZM22.7482 19.4309H14.3128V27.8662H22.7482V19.4309Z" fill="#41649F"/>
</svg>
