<svg width="27" height="27" viewBox="0 0 27 27" fill="none" xmlns="http://www.w3.org/2000/svg">
<mask id="mask0_2_11814" style="mask-type:luminance" maskUnits="userSpaceOnUse" x="0" y="0" width="27" height="27">
<path fill-rule="evenodd" clip-rule="evenodd" d="M0.791016 0H26.5969V26.8901H0.791016V0Z" fill="white"/>
</mask>
<g mask="url(#mask0_2_11814)">
<path fill-rule="evenodd" clip-rule="evenodd" d="M10.5059 6.94686C10.5037 6.92219 10.4915 6.89243 10.5004 6.87184C10.9404 5.86153 11.3654 4.84417 11.8332 3.84686C11.9877 3.51749 12.2264 3.21586 12.4729 2.94347C13.2332 2.10326 14.2368 2.10607 14.9618 2.9787C15.3075 3.39471 15.6018 3.86957 15.8372 4.35743C16.2162 5.14288 16.5275 5.96107 16.8659 6.7661C16.8887 6.82043 16.8982 6.88033 16.9164 6.94686H10.5059ZM25.9669 8.51554C25.2798 8.22415 24.574 7.9342 23.8474 7.78771C22.5273 7.52157 21.1865 7.35635 19.8522 7.16413C19.6417 7.13378 19.5298 7.05876 19.4496 6.86133C19.0944 5.98664 18.7226 5.11869 18.359 4.24739C17.9392 3.2417 17.4554 2.27601 16.7329 1.4435C15.2788 -0.231821 13.0094 -0.480551 11.3029 0.863695C10.5374 1.46663 9.98546 2.24609 9.58238 3.11691C9.04895 4.2693 8.5455 5.43745 8.08279 6.61982C7.91507 7.04836 7.67202 7.16211 7.25139 7.19649C5.85239 7.31083 4.45891 7.49706 3.10988 7.89562C2.45458 8.08923 1.8283 8.38385 1.19432 8.6459C0.850411 8.78798 0.744085 9.06467 0.809079 9.42424C0.852957 9.66703 0.87349 9.91401 0.912381 10.1578C1.20982 12.0213 1.46937 13.892 1.81986 15.7455C2.13364 17.4046 2.59863 19.0395 3.39575 20.5338C5.58859 24.6448 9.09713 26.6599 13.7529 26.8901C14.3505 26.8269 14.9978 26.8025 15.6277 26.6847C19.4927 25.962 22.3422 23.8493 24.1054 20.3331C24.9532 18.6423 25.4236 16.813 25.7472 14.9574C26.0578 13.1769 26.2955 11.3836 26.5537 9.59434C26.6546 8.89495 26.6232 8.79382 25.9669 8.51554Z" fill="url(#paint0_linear_2_11814)"/>
</g>
<defs>
<linearGradient id="paint0_linear_2_11814" x1="0.791016" y1="0" x2="0.791016" y2="26.8901" gradientUnits="userSpaceOnUse">
<stop stop-color="#97D602"/>
<stop offset="1" stop-color="#019A52"/>
</linearGradient>
</defs>
</svg>
