<svg width="62" height="62" viewBox="0 0 62 62" fill="none" xmlns="http://www.w3.org/2000/svg">
<g clip-path="url(#clip0_2_11719)">
<path d="M42.4822 8.21801L14.4002 16.6126C9.78468 17.9923 7.15413 22.8771 8.52482 27.5231L16.8645 55.7904C18.2352 60.4364 23.088 63.0842 27.7036 61.7044L55.7856 53.3099C60.4011 51.9301 63.0317 47.0453 61.661 42.3993L53.3213 14.132C51.9507 9.48607 47.0978 6.83828 42.4822 8.21801Z" fill="url(#paint0_linear_2_11719)"/>
<g filter="url(#filter0_bi_2_11719)">
<path d="M43.021 0H8.7179C3.90314 0 0 3.92887 0 8.77539V43.3046C0 48.1511 3.90314 52.08 8.7179 52.08H43.021C47.8357 52.08 51.7389 48.1511 51.7389 43.3046V8.77539C51.7389 3.92887 47.8357 0 43.021 0Z" fill="#F1F1F1" fill-opacity="0.1"/>
<path d="M43.021 0H8.7179C3.90314 0 0 3.92887 0 8.77539V43.3046C0 48.1511 3.90314 52.08 8.7179 52.08H43.021C47.8357 52.08 51.7389 48.1511 51.7389 43.3046V8.77539C51.7389 3.92887 47.8357 0 43.021 0Z" fill="url(#paint1_linear_2_11719)" fill-opacity="0.1"/>
<path d="M8.7179 0.3H43.021C47.6682 0.3 51.4389 4.0927 51.4389 8.77539V43.3046C51.4389 47.9873 47.6682 51.78 43.021 51.78H8.7179C4.07068 51.78 0.3 47.9873 0.3 43.3046V8.77539C0.3 4.0927 4.07068 0.3 8.7179 0.3Z" stroke="#F1F1F1" stroke-opacity="0.1" stroke-width="0.6"/>
<path d="M8.7179 0.3H43.021C47.6682 0.3 51.4389 4.0927 51.4389 8.77539V43.3046C51.4389 47.9873 47.6682 51.78 43.021 51.78H8.7179C4.07068 51.78 0.3 47.9873 0.3 43.3046V8.77539C0.3 4.0927 4.07068 0.3 8.7179 0.3Z" stroke="url(#paint2_linear_2_11719)" stroke-opacity="0.1" stroke-width="0.6"/>
</g>
<g filter="url(#filter1_bd_2_11719)">
<path d="M14.1599 15.9156H13.3206V10.4651C13.3206 10.1037 13.1779 9.75707 12.924 9.50152C12.6701 9.24598 12.3259 9.10242 11.9669 9.10242C11.61 9.10939 11.2696 9.2552 11.0172 9.50925C10.7648 9.76329 10.6201 10.1058 10.6132 10.4651V15.9156H9.77388C9.11327 15.9156 8.47962 16.1798 8.0125 16.65C7.54538 17.1202 7.28293 17.7579 7.28293 18.4229V27.6343C7.28293 28.2992 7.54538 28.937 8.0125 29.4072C8.47962 29.8774 9.11327 30.1415 9.77388 30.1415H10.6132V39.353C10.6132 39.7144 10.7557 40.0609 11.0096 40.3165C11.2635 40.572 11.6079 40.7156 11.9669 40.7156C12.3259 40.7156 12.6701 40.572 12.924 40.3165C13.1779 40.0609 13.3206 39.7144 13.3206 39.353V30.0325H14.1599C14.8205 30.0325 15.454 29.7684 15.9211 29.2982C16.3882 28.828 16.6507 28.1902 16.6507 27.5253V18.3138C16.6227 17.668 16.3481 17.0579 15.8839 16.611C15.4198 16.1641 14.8022 15.915 14.1599 15.9156Z" fill="url(#paint3_linear_2_11719)"/>
<path d="M14.1599 16.0337L14.16 16.0337C14.7716 16.0331 15.3598 16.2704 15.802 16.6961C16.2436 17.1213 16.5053 17.7017 16.5325 18.3164V27.5253C16.5325 28.1592 16.2824 28.7669 15.8373 29.2149C15.3923 29.6629 14.7889 29.9144 14.1599 29.9144H13.3206H13.2025V30.0325V39.353C13.2025 39.6833 13.072 39.9999 12.8402 40.2332C12.6084 40.4666 12.2943 40.5975 11.9669 40.5975C11.6394 40.5975 11.3252 40.4665 11.0934 40.2332C10.8616 39.9999 10.7313 39.6833 10.7313 39.353V30.1415V30.0234H10.6132H9.77388C9.14484 30.0234 8.54132 29.7719 8.0963 29.3239C7.65124 28.8759 7.40105 28.2682 7.40105 27.6343V18.4229C7.40105 17.789 7.65124 17.1812 8.0963 16.7332C8.54133 16.2853 9.14484 16.0337 9.77388 16.0337H10.6132H10.7313V15.9156V10.4662C10.7379 10.1377 10.8704 9.82462 11.101 9.5925C11.3316 9.36041 11.6424 9.22721 11.968 9.22054C12.2951 9.22085 12.6087 9.35174 12.8402 9.58478C13.072 9.81812 13.2025 10.1348 13.2025 10.4651V15.9156V16.0337H13.3206H14.1599Z" stroke="url(#paint4_linear_2_11719)" stroke-opacity="0.5" stroke-width="0.236249"/>
</g>
<g filter="url(#filter2_bd_2_11719)">
<path d="M41.965 13.1904H41.1528V7.73983C41.1528 7.37844 41.0102 7.03185 40.7564 6.7763C40.5025 6.52076 40.1581 6.3772 39.7991 6.3772C39.4401 6.3772 39.0958 6.52076 38.842 6.7763C38.5881 7.03185 38.4454 7.37844 38.4454 7.73983V13.1904H37.6061C36.943 13.1903 36.3065 13.4536 35.8351 13.9231C35.3637 14.3925 35.0953 15.0302 35.0882 15.6976V23.0286C35.0953 23.6961 35.3637 24.3338 35.8351 24.8032C36.3065 25.2726 36.943 25.5359 37.6061 25.5359H38.4454V36.6277C38.4454 36.9891 38.5881 37.3357 38.842 37.5913C39.0958 37.8468 39.4401 37.9904 39.7991 37.9904C40.1581 37.9904 40.5025 37.8468 40.7564 37.5913C41.0102 37.3357 41.1528 36.9891 41.1528 36.6277V25.4269H41.965C42.6281 25.4269 43.2645 25.1636 43.736 24.6942C44.2074 24.2248 44.4757 23.5871 44.4829 22.9196V15.5886C44.4482 14.9403 44.1678 14.3301 43.6993 13.8839C43.2308 13.4377 42.61 13.1894 41.965 13.1904Z" fill="url(#paint5_linear_2_11719)"/>
<path d="M41.965 13.3085L41.9652 13.3085C42.5797 13.3076 43.1712 13.5441 43.6178 13.9695C44.0636 14.3941 44.3309 14.9747 44.3648 15.5918V22.919C44.3578 23.5553 44.1019 24.1631 43.6526 24.6105C43.2032 25.0579 42.5968 25.3088 41.965 25.3087H41.1528H41.0347V25.4269V36.6277C41.0347 36.9581 40.9044 37.2747 40.6726 37.508C40.4408 37.7413 40.1265 37.8723 39.7991 37.8723C39.4716 37.8723 39.1576 37.7413 38.9258 37.508C38.694 37.2747 38.5635 36.958 38.5635 36.6277V25.5359V25.4177H38.4454H37.6061C36.9743 25.4178 36.3678 25.167 35.9185 24.7195C35.4692 24.2722 35.2133 23.6644 35.2063 23.028V15.6983C35.2133 15.0619 35.4692 14.4541 35.9185 14.0068C36.3678 13.5593 36.9743 13.3085 37.6061 13.3085H38.4454H38.5635V13.1904V7.73983C38.5635 7.40954 38.694 7.0929 38.9258 6.85956C39.1576 6.62624 39.4716 6.49532 39.7991 6.49532C40.1265 6.49532 40.4408 6.62625 40.6726 6.85956C40.9044 7.09288 41.0347 7.40951 41.0347 7.73983V13.1904V13.3085H41.1528H41.965Z" stroke="url(#paint6_linear_2_11719)" stroke-opacity="0.5" stroke-width="0.236249"/>
</g>
<g filter="url(#filter3_bd_2_11719)">
<path d="M27.9677 21.0664H27.1284V15.6158C27.1284 15.2544 26.9858 14.9078 26.732 14.6523C26.4781 14.3967 26.1337 14.2532 25.7747 14.2532C25.4156 14.2532 25.0713 14.3967 24.8174 14.6523C24.5635 14.9078 24.421 15.2544 24.421 15.6158V21.0664H23.5817C22.9186 21.0735 22.285 21.3437 21.8186 21.8183C21.3523 22.2928 21.0908 22.9334 21.0909 23.6009V37.3908C21.0908 38.0583 21.3523 38.6988 21.8186 39.1734C22.285 39.6479 22.9186 39.9181 23.5817 39.9253H24.421V44.531C24.4279 44.8902 24.5728 45.2328 24.8252 45.4868C25.0775 45.7408 25.4178 45.8866 25.7747 45.8936C26.1337 45.8936 26.4781 45.7501 26.732 45.4945C26.9858 45.239 27.1284 44.8924 27.1284 44.531V39.9253H27.9677C28.6308 39.9181 29.2643 39.6479 29.7307 39.1734C30.1971 38.6988 30.4585 38.0583 30.4585 37.3908V23.6009C30.4585 22.9334 30.1971 22.2928 29.7307 21.8183C29.2643 21.3437 28.6308 21.0735 27.9677 21.0664Z" fill="url(#paint7_linear_2_11719)"/>
<path d="M27.0103 21.0664V21.1845H27.1284H27.9671C28.5985 21.1915 29.2021 21.4489 29.6465 21.9011C30.091 22.3534 30.3404 22.9642 30.3403 23.6009V37.3908C30.3404 38.0274 30.091 38.6382 29.6465 39.0906C29.202 39.5428 28.5985 39.8002 27.9669 39.8071H27.1284H27.0103V39.9253V44.531C27.0103 44.8613 26.8799 45.1779 26.6482 45.4113C26.4167 45.6443 26.1029 45.7752 25.7759 45.7755C25.4502 45.7688 25.1396 45.6357 24.909 45.4035C24.6783 45.1714 24.5457 44.8583 24.5391 44.5298V39.9253V39.8071H24.421H23.5824C22.9509 39.8002 22.3473 39.5428 21.9029 39.0906C21.4583 38.6382 21.209 38.0274 21.209 37.3908V23.6009C21.209 22.9642 21.4583 22.3534 21.9029 21.9011C22.3473 21.4489 22.9508 21.1915 23.5823 21.1845H24.421H24.5391V21.0664V15.6158C24.5391 15.2855 24.6694 14.9689 24.9012 14.7355C25.133 14.5022 25.4472 14.3713 25.7747 14.3713C26.1021 14.3713 26.4164 14.5022 26.6482 14.7355C26.8799 14.9689 27.0103 15.2855 27.0103 15.6158V21.0664Z" stroke="url(#paint8_linear_2_11719)" stroke-opacity="0.5" stroke-width="0.236249"/>
</g>
</g>
<defs>
<filter id="filter0_bi_2_11719" x="-9.75" y="-9.75" width="71.2389" height="71.58" filterUnits="userSpaceOnUse" color-interpolation-filters="sRGB">
<feFlood flood-opacity="0" result="BackgroundImageFix"/>
<feGaussianBlur in="BackgroundImageFix" stdDeviation="4.875"/>
<feComposite in2="SourceAlpha" operator="in" result="effect1_backgroundBlur_2_11719"/>
<feBlend mode="normal" in="SourceGraphic" in2="effect1_backgroundBlur_2_11719" result="shape"/>
<feColorMatrix in="SourceAlpha" type="matrix" values="0 0 0 0 0 0 0 0 0 0 0 0 0 0 0 0 0 0 127 0" result="hardAlpha"/>
<feOffset dy="1.625"/>
<feGaussianBlur stdDeviation="3.25"/>
<feComposite in2="hardAlpha" operator="arithmetic" k2="-1" k3="1"/>
<feColorMatrix type="matrix" values="0 0 0 0 1 0 0 0 0 1 0 0 0 0 1 0 0 0 0.4 0"/>
<feBlend mode="normal" in2="shape" result="effect2_innerShadow_2_11719"/>
</filter>
<filter id="filter1_bd_2_11719" x="-10.4358" y="-8.61629" width="44.8052" height="67.0506" filterUnits="userSpaceOnUse" color-interpolation-filters="sRGB">
<feFlood flood-opacity="0" result="BackgroundImageFix"/>
<feGaussianBlur in="BackgroundImageFix" stdDeviation="8.85935"/>
<feComposite in2="SourceAlpha" operator="in" result="effect1_backgroundBlur_2_11719"/>
<feColorMatrix in="SourceAlpha" type="matrix" values="0 0 0 0 0 0 0 0 0 0 0 0 0 0 0 0 0 0 127 0" result="hardAlpha"/>
<feOffset dy="2"/>
<feGaussianBlur stdDeviation="2.5"/>
<feColorMatrix type="matrix" values="0 0 0 0 0.209693 0 0 0 0 0.342814 0 0 0 0 0.444613 0 0 0 0.28 0"/>
<feBlend mode="normal" in2="effect1_backgroundBlur_2_11719" result="effect2_dropShadow_2_11719"/>
<feBlend mode="normal" in="SourceGraphic" in2="effect2_dropShadow_2_11719" result="shape"/>
</filter>
<filter id="filter2_bd_2_11719" x="17.3695" y="-11.3415" width="44.8321" height="67.0506" filterUnits="userSpaceOnUse" color-interpolation-filters="sRGB">
<feFlood flood-opacity="0" result="BackgroundImageFix"/>
<feGaussianBlur in="BackgroundImageFix" stdDeviation="8.85935"/>
<feComposite in2="SourceAlpha" operator="in" result="effect1_backgroundBlur_2_11719"/>
<feColorMatrix in="SourceAlpha" type="matrix" values="0 0 0 0 0 0 0 0 0 0 0 0 0 0 0 0 0 0 127 0" result="hardAlpha"/>
<feOffset dy="2"/>
<feGaussianBlur stdDeviation="2.5"/>
<feColorMatrix type="matrix" values="0 0 0 0 0.209693 0 0 0 0 0.342814 0 0 0 0 0.444613 0 0 0 0.28 0"/>
<feBlend mode="normal" in2="effect1_backgroundBlur_2_11719" result="effect2_dropShadow_2_11719"/>
<feBlend mode="normal" in="SourceGraphic" in2="effect2_dropShadow_2_11719" result="shape"/>
</filter>
<filter id="filter3_bd_2_11719" x="3.37217" y="-3.46553" width="44.805" height="67.0779" filterUnits="userSpaceOnUse" color-interpolation-filters="sRGB">
<feFlood flood-opacity="0" result="BackgroundImageFix"/>
<feGaussianBlur in="BackgroundImageFix" stdDeviation="8.85935"/>
<feComposite in2="SourceAlpha" operator="in" result="effect1_backgroundBlur_2_11719"/>
<feColorMatrix in="SourceAlpha" type="matrix" values="0 0 0 0 0 0 0 0 0 0 0 0 0 0 0 0 0 0 127 0" result="hardAlpha"/>
<feOffset dy="2"/>
<feGaussianBlur stdDeviation="2.5"/>
<feColorMatrix type="matrix" values="0 0 0 0 0.209693 0 0 0 0 0.342814 0 0 0 0 0.444613 0 0 0 0.28 0"/>
<feBlend mode="normal" in2="effect1_backgroundBlur_2_11719" result="effect2_dropShadow_2_11719"/>
<feBlend mode="normal" in="SourceGraphic" in2="effect2_dropShadow_2_11719" result="shape"/>
</filter>
<linearGradient id="paint0_linear_2_11719" x1="10.5702" y1="27.5713" x2="61.4312" y2="19.9" gradientUnits="userSpaceOnUse">
<stop stop-color="#41649F"/>
<stop offset="1" stop-color="#C0D8FF"/>
</linearGradient>
<linearGradient id="paint1_linear_2_11719" x1="-1.96741e-07" y1="-0.186795" x2="61.9349" y2="31.3649" gradientUnits="userSpaceOnUse">
<stop stop-color="#4B6DA6"/>
<stop offset="1" stop-color="#B2CAF4"/>
</linearGradient>
<linearGradient id="paint2_linear_2_11719" x1="-1.96741e-07" y1="-0.186795" x2="61.9349" y2="31.3649" gradientUnits="userSpaceOnUse">
<stop stop-color="#4A6CA6"/>
<stop offset="1" stop-color="#B2CBF4"/>
</linearGradient>
<linearGradient id="paint3_linear_2_11719" x1="15.9865" y1="14.8111" x2="5.54161" y2="14.912" gradientUnits="userSpaceOnUse">
<stop stop-color="white"/>
<stop offset="1" stop-color="white" stop-opacity="0.2"/>
</linearGradient>
<linearGradient id="paint4_linear_2_11719" x1="8.29204" y1="19.7071" x2="16.2468" y2="19.7201" gradientUnits="userSpaceOnUse">
<stop stop-color="white"/>
<stop offset="1" stop-color="white" stop-opacity="0"/>
</linearGradient>
<linearGradient id="paint5_linear_2_11719" x1="43.8168" y1="12.0859" x2="33.3419" y2="12.1874" gradientUnits="userSpaceOnUse">
<stop stop-color="white"/>
<stop offset="1" stop-color="white" stop-opacity="0.2"/>
</linearGradient>
<linearGradient id="paint6_linear_2_11719" x1="36.1002" y1="16.9819" x2="44.0778" y2="16.995" gradientUnits="userSpaceOnUse">
<stop stop-color="white"/>
<stop offset="1" stop-color="white" stop-opacity="0"/>
</linearGradient>
<linearGradient id="paint7_linear_2_11719" x1="29.7943" y1="19.9668" x2="19.3496" y2="20.0676" gradientUnits="userSpaceOnUse">
<stop stop-color="white"/>
<stop offset="1" stop-color="white" stop-opacity="0.2"/>
</linearGradient>
<linearGradient id="paint8_linear_2_11719" x1="22.1" y1="24.867" x2="30.0546" y2="24.88" gradientUnits="userSpaceOnUse">
<stop stop-color="white"/>
<stop offset="1" stop-color="white" stop-opacity="0"/>
</linearGradient>
<clipPath id="clip0_2_11719">
<rect width="62" height="62" fill="white"/>
</clipPath>
</defs>
</svg>
