<svg width="62" height="62" viewBox="0 0 62 62" fill="none" xmlns="http://www.w3.org/2000/svg">
<path d="M51.9741 15.7422H16.9147C11.3776 15.7422 6.88885 20.0848 6.88885 25.4417V48.4255C6.88885 53.7824 11.3776 58.125 16.9147 58.125H51.9741C57.5112 58.125 62 53.7824 62 48.4255V25.4417C62 20.0848 57.5112 15.7422 51.9741 15.7422Z" fill="url(#paint0_linear_2_11730)"/>
<g filter="url(#filter0_bi_2_11730)">
<path d="M45.0852 15.3392H10.0259C4.48873 15.3392 0 19.7232 0 25.131V48.3332C0 53.7411 4.48873 58.125 10.0259 58.125H45.0852C50.6224 58.125 55.1111 53.7411 55.1111 48.3332V25.131C55.1111 19.7232 50.6224 15.3392 45.0852 15.3392Z" fill="#F1F1F1" fill-opacity="0.1"/>
<path d="M45.0852 15.3392H10.0259C4.48873 15.3392 0 19.7232 0 25.131V48.3332C0 53.7411 4.48873 58.125 10.0259 58.125H45.0852C50.6224 58.125 55.1111 53.7411 55.1111 48.3332V25.131C55.1111 19.7232 50.6224 15.3392 45.0852 15.3392Z" fill="url(#paint1_linear_2_11730)" fill-opacity="0.1"/>
<path d="M10.0259 15.6392H45.0852C50.4634 15.6392 54.8111 19.8955 54.8111 25.131V48.3332C54.8111 53.5687 50.4634 57.825 45.0852 57.825H10.0259C4.6477 57.825 0.3 53.5687 0.3 48.3332V25.131C0.3 19.8955 4.6477 15.6392 10.0259 15.6392Z" stroke="#F1F1F1" stroke-opacity="0.1" stroke-width="0.6"/>
<path d="M10.0259 15.6392H45.0852C50.4634 15.6392 54.8111 19.8955 54.8111 25.131V48.3332C54.8111 53.5687 50.4634 57.825 45.0852 57.825H10.0259C4.6477 57.825 0.3 53.5687 0.3 48.3332V25.131C0.3 19.8955 4.6477 15.6392 10.0259 15.6392Z" stroke="url(#paint2_linear_2_11730)" stroke-opacity="0.1" stroke-width="0.6"/>
</g>
<path d="M45.0696 18.2281C44.7618 18.2321 44.4562 18.176 44.171 18.0628C43.8858 17.9497 43.6267 17.7818 43.409 17.5692C43.1914 17.3566 43.0195 17.1035 42.9036 16.825C42.7878 16.5464 42.7302 16.248 42.7344 15.9474C42.7262 13.9525 41.909 12.0421 40.4618 10.6344C39.0145 9.22666 37.0552 8.43632 35.0126 8.43634H26.1388C24.1016 8.44435 22.1503 9.23824 20.7098 10.6451C19.2693 12.052 18.4563 13.9578 18.4481 15.9474C18.4481 16.5522 18.2021 17.1324 17.7642 17.5601C17.3262 17.9878 16.7323 18.2281 16.1129 18.2281C15.4936 18.2281 14.8996 17.9878 14.4617 17.5601C14.0237 17.1324 13.7777 16.5522 13.7777 15.9474C13.7777 12.7214 15.0899 9.62752 17.4255 7.34639C19.7612 5.06526 22.9291 3.78369 26.2322 3.78369H35.106C38.4092 3.78369 41.577 5.06526 43.9127 7.34639C46.2484 9.62752 47.5605 12.7214 47.5605 15.9474C47.5612 16.2601 47.4961 16.5697 47.3691 16.8568C47.2421 17.1439 47.0561 17.4024 46.8225 17.6163C46.5888 17.8302 46.3127 17.9949 46.0111 18.1001C45.7096 18.2054 45.3891 18.2489 45.0696 18.2281Z" fill="url(#paint3_linear_2_11730)"/>
<g filter="url(#filter1_bi_2_11730)">
<path d="M45.0852 15.3392H10.0259C4.48873 15.3392 0 19.7232 0 25.131V29.9965C0 35.4043 4.48873 39.7882 10.0259 39.7882H45.0852C50.6224 39.7882 55.1111 35.4043 55.1111 29.9965V25.131C55.1111 19.7232 50.6224 15.3392 45.0852 15.3392Z" fill="#F1F1F1" fill-opacity="0.1"/>
<path d="M45.0852 15.3392H10.0259C4.48873 15.3392 0 19.7232 0 25.131V29.9965C0 35.4043 4.48873 39.7882 10.0259 39.7882H45.0852C50.6224 39.7882 55.1111 35.4043 55.1111 29.9965V25.131C55.1111 19.7232 50.6224 15.3392 45.0852 15.3392Z" fill="url(#paint4_linear_2_11730)" fill-opacity="0.1"/>
<path d="M10.0259 15.6392H45.0852C50.4634 15.6392 54.8111 19.8955 54.8111 25.131V29.9965C54.8111 35.232 50.4634 39.4882 45.0852 39.4882H10.0259C4.6477 39.4882 0.3 35.232 0.3 29.9965V25.131C0.3 19.8955 4.6477 15.6392 10.0259 15.6392Z" stroke="url(#paint5_linear_2_11730)" stroke-opacity="0.1" stroke-width="0.6"/>
</g>
<g filter="url(#filter2_bi_2_11730)">
<path d="M45.0852 15.3392H10.0259C4.48873 15.3392 0 19.7232 0 25.131V29.9965C0 35.4043 4.48873 39.7882 10.0259 39.7882H45.0852C50.6224 39.7882 55.1111 35.4043 55.1111 29.9965V25.131C55.1111 19.7232 50.6224 15.3392 45.0852 15.3392Z" fill="#F1F1F1" fill-opacity="0.1"/>
<path d="M45.0852 15.3392H10.0259C4.48873 15.3392 0 19.7232 0 25.131V29.9965C0 35.4043 4.48873 39.7882 10.0259 39.7882H45.0852C50.6224 39.7882 55.1111 35.4043 55.1111 29.9965V25.131C55.1111 19.7232 50.6224 15.3392 45.0852 15.3392Z" fill="url(#paint6_linear_2_11730)" fill-opacity="0.1"/>
<path d="M10.0259 15.6392H45.0852C50.4634 15.6392 54.8111 19.8955 54.8111 25.131V29.9965C54.8111 35.232 50.4634 39.4882 45.0852 39.4882H10.0259C4.6477 39.4882 0.3 35.232 0.3 29.9965V25.131C0.3 19.8955 4.6477 15.6392 10.0259 15.6392Z" stroke="#F1F1F1" stroke-opacity="0.1" stroke-width="0.6"/>
<path d="M10.0259 15.6392H45.0852C50.4634 15.6392 54.8111 19.8955 54.8111 25.131V29.9965C54.8111 35.232 50.4634 39.4882 45.0852 39.4882H10.0259C4.6477 39.4882 0.3 35.232 0.3 29.9965V25.131C0.3 19.8955 4.6477 15.6392 10.0259 15.6392Z" stroke="url(#paint7_linear_2_11730)" stroke-opacity="0.1" stroke-width="0.6"/>
</g>
<g filter="url(#filter3_bd_2_11730)">
<path d="M31.6967 36.1088H23.4145C22.5547 36.1088 21.8577 36.7895 21.8577 37.6292V41.9777C21.8577 42.8175 22.5547 43.4982 23.4145 43.4982H31.6967C32.5565 43.4982 33.2535 42.8175 33.2535 41.9777V37.6292C33.2535 36.7895 32.5565 36.1088 31.6967 36.1088Z" fill="url(#paint8_linear_2_11730)"/>
<path d="M23.4145 36.2269H31.6967C32.4939 36.2269 33.1354 36.8574 33.1354 37.6292V41.9777C33.1354 42.7496 32.4939 43.3801 31.6967 43.3801H23.4145C22.6173 43.3801 21.9758 42.7496 21.9758 41.9777V37.6292C21.9758 36.8574 22.6173 36.2269 23.4145 36.2269Z" stroke="url(#paint9_linear_2_11730)" stroke-opacity="0.5" stroke-width="0.236249"/>
</g>
<defs>
<filter id="filter0_bi_2_11730" x="-9.75" y="5.58923" width="74.6111" height="62.2858" filterUnits="userSpaceOnUse" color-interpolation-filters="sRGB">
<feFlood flood-opacity="0" result="BackgroundImageFix"/>
<feGaussianBlur in="BackgroundImageFix" stdDeviation="4.875"/>
<feComposite in2="SourceAlpha" operator="in" result="effect1_backgroundBlur_2_11730"/>
<feBlend mode="normal" in="SourceGraphic" in2="effect1_backgroundBlur_2_11730" result="shape"/>
<feColorMatrix in="SourceAlpha" type="matrix" values="0 0 0 0 0 0 0 0 0 0 0 0 0 0 0 0 0 0 127 0" result="hardAlpha"/>
<feOffset dy="1.625"/>
<feGaussianBlur stdDeviation="3.25"/>
<feComposite in2="hardAlpha" operator="arithmetic" k2="-1" k3="1"/>
<feColorMatrix type="matrix" values="0 0 0 0 1 0 0 0 0 1 0 0 0 0 1 0 0 0 0.4 0"/>
<feBlend mode="normal" in2="shape" result="effect2_innerShadow_2_11730"/>
</filter>
<filter id="filter1_bi_2_11730" x="-9.75" y="5.58923" width="74.6111" height="43.949" filterUnits="userSpaceOnUse" color-interpolation-filters="sRGB">
<feFlood flood-opacity="0" result="BackgroundImageFix"/>
<feGaussianBlur in="BackgroundImageFix" stdDeviation="4.875"/>
<feComposite in2="SourceAlpha" operator="in" result="effect1_backgroundBlur_2_11730"/>
<feBlend mode="normal" in="SourceGraphic" in2="effect1_backgroundBlur_2_11730" result="shape"/>
<feColorMatrix in="SourceAlpha" type="matrix" values="0 0 0 0 0 0 0 0 0 0 0 0 0 0 0 0 0 0 127 0" result="hardAlpha"/>
<feOffset dy="1.625"/>
<feGaussianBlur stdDeviation="3.25"/>
<feComposite in2="hardAlpha" operator="arithmetic" k2="-1" k3="1"/>
<feColorMatrix type="matrix" values="0 0 0 0 1 0 0 0 0 1 0 0 0 0 1 0 0 0 0.4 0"/>
<feBlend mode="normal" in2="shape" result="effect2_innerShadow_2_11730"/>
</filter>
<filter id="filter2_bi_2_11730" x="-9.75" y="5.58923" width="74.6111" height="43.949" filterUnits="userSpaceOnUse" color-interpolation-filters="sRGB">
<feFlood flood-opacity="0" result="BackgroundImageFix"/>
<feGaussianBlur in="BackgroundImageFix" stdDeviation="4.875"/>
<feComposite in2="SourceAlpha" operator="in" result="effect1_backgroundBlur_2_11730"/>
<feBlend mode="normal" in="SourceGraphic" in2="effect1_backgroundBlur_2_11730" result="shape"/>
<feColorMatrix in="SourceAlpha" type="matrix" values="0 0 0 0 0 0 0 0 0 0 0 0 0 0 0 0 0 0 127 0" result="hardAlpha"/>
<feOffset dy="1.625"/>
<feGaussianBlur stdDeviation="3.25"/>
<feComposite in2="hardAlpha" operator="arithmetic" k2="-1" k3="1"/>
<feColorMatrix type="matrix" values="0 0 0 0 1 0 0 0 0 1 0 0 0 0 1 0 0 0 0.4 0"/>
<feBlend mode="normal" in2="shape" result="effect2_innerShadow_2_11730"/>
</filter>
<filter id="filter3_bd_2_11730" x="4.13896" y="18.3901" width="46.8333" height="42.8268" filterUnits="userSpaceOnUse" color-interpolation-filters="sRGB">
<feFlood flood-opacity="0" result="BackgroundImageFix"/>
<feGaussianBlur in="BackgroundImageFix" stdDeviation="8.85935"/>
<feComposite in2="SourceAlpha" operator="in" result="effect1_backgroundBlur_2_11730"/>
<feColorMatrix in="SourceAlpha" type="matrix" values="0 0 0 0 0 0 0 0 0 0 0 0 0 0 0 0 0 0 127 0" result="hardAlpha"/>
<feOffset dy="2"/>
<feGaussianBlur stdDeviation="2.5"/>
<feColorMatrix type="matrix" values="0 0 0 0 0.209693 0 0 0 0 0.342814 0 0 0 0 0.444613 0 0 0 0.28 0"/>
<feBlend mode="normal" in2="effect1_backgroundBlur_2_11730" result="effect2_dropShadow_2_11730"/>
<feBlend mode="normal" in="SourceGraphic" in2="effect2_dropShadow_2_11730" result="shape"/>
</filter>
<linearGradient id="paint0_linear_2_11730" x1="9.18515" y1="24.2188" x2="68.4856" y2="34.9284" gradientUnits="userSpaceOnUse">
<stop stop-color="#41649F"/>
<stop offset="1" stop-color="#C0D8FF"/>
</linearGradient>
<linearGradient id="paint1_linear_2_11730" x1="-2.09564e-07" y1="15.1858" x2="57.8529" y2="53.3984" gradientUnits="userSpaceOnUse">
<stop stop-color="#4B6DA6"/>
<stop offset="1" stop-color="#B2CAF4"/>
</linearGradient>
<linearGradient id="paint2_linear_2_11730" x1="-2.09564e-07" y1="15.1858" x2="57.8529" y2="53.3984" gradientUnits="userSpaceOnUse">
<stop stop-color="#4A6CA6"/>
<stop offset="1" stop-color="#B2CBF4"/>
</linearGradient>
<linearGradient id="paint3_linear_2_11730" x1="15.1853" y1="6.67358" x2="49.1413" y2="17.6999" gradientUnits="userSpaceOnUse">
<stop stop-color="#41649F"/>
<stop offset="1" stop-color="#C0D8FF"/>
</linearGradient>
<linearGradient id="paint4_linear_2_11730" x1="-2.09564e-07" y1="15.2515" x2="35.569" y2="56.3657" gradientUnits="userSpaceOnUse">
<stop stop-color="#7FFBE5"/>
<stop offset="1" stop-color="#84BEFA"/>
</linearGradient>
<linearGradient id="paint5_linear_2_11730" x1="1.72222" y1="16.4506" x2="55.1111" y2="16.4506" gradientUnits="userSpaceOnUse">
<stop stop-color="#7FFBE5"/>
<stop offset="1" stop-color="#84BEFA"/>
</linearGradient>
<linearGradient id="paint6_linear_2_11730" x1="-2.09564e-07" y1="15.2515" x2="35.569" y2="56.3657" gradientUnits="userSpaceOnUse">
<stop stop-color="#4B6DA6"/>
<stop offset="1" stop-color="#B2CAF4"/>
</linearGradient>
<linearGradient id="paint7_linear_2_11730" x1="-2.09564e-07" y1="15.2515" x2="35.569" y2="56.3657" gradientUnits="userSpaceOnUse">
<stop stop-color="#4A6CA6"/>
<stop offset="1" stop-color="#B2CBF4"/>
</linearGradient>
<linearGradient id="paint8_linear_2_11730" x1="32.4456" y1="37.4431" x2="19.7702" y2="38.0805" gradientUnits="userSpaceOnUse">
<stop stop-color="white"/>
<stop offset="1" stop-color="white" stop-opacity="0.2"/>
</linearGradient>
<linearGradient id="paint9_linear_2_11730" x1="23.0852" y1="38.5876" x2="32.7615" y2="38.6699" gradientUnits="userSpaceOnUse">
<stop stop-color="white"/>
<stop offset="1" stop-color="white" stop-opacity="0"/>
</linearGradient>
</defs>
</svg>
