<svg width="62" height="62" viewBox="0 0 62 62" fill="none" xmlns="http://www.w3.org/2000/svg">
<g clip-path="url(#clip0_2_11725)">
<path d="M49.8149 29.0927C52.2384 29.0272 54.6362 29.6101 56.7676 30.7828C56.9804 30.9137 57.2261 30.9791 57.4748 30.971C57.7236 30.9629 57.9646 30.8817 58.1688 30.7373C58.3729 30.5929 58.5314 30.3914 58.6249 30.1574C58.7184 29.9233 58.743 29.6668 58.6957 29.4188C57.5944 22.8556 54.2406 16.8997 49.2281 12.6053C44.2156 8.31094 37.8677 5.9552 31.3082 5.9552C24.7488 5.9552 18.4009 8.31094 13.3884 12.6053C8.3759 16.8997 5.0221 22.8556 3.92079 29.4188C3.86831 29.6711 3.89067 29.9335 3.98502 30.1729C4.07937 30.4123 4.24151 30.6179 4.45093 30.7639C4.66035 30.9098 4.90768 30.9895 5.16169 30.9929C5.4157 30.9962 5.66497 30.9231 5.87807 30.7828C7.99882 29.6099 10.3873 29.0268 12.8016 29.0927C15.7906 28.8967 18.7397 29.8732 21.0398 31.8205C21.1659 31.9657 21.3209 32.0819 21.4947 32.1616C21.6685 32.2412 21.857 32.2824 22.0476 32.2824C22.2383 32.2824 22.4267 32.2412 22.6005 32.1616C22.7743 32.0819 22.9294 31.9657 23.0555 31.8205C25.4532 30.049 28.3425 29.0946 31.3082 29.0946C34.274 29.0946 37.1633 30.049 39.561 31.8205C39.6871 31.9657 39.8422 32.0819 40.016 32.1616C40.1897 32.2412 40.3782 32.2824 40.5688 32.2824C40.7595 32.2824 40.948 32.2412 41.1218 32.1616C41.2955 32.0819 41.4506 31.9657 41.5767 31.8205C43.8768 29.8732 46.8259 28.8967 49.8149 29.0927Z" fill="url(#paint0_linear_2_11725)"/>
<path d="M24.7127 62.1427C22.6646 62.1427 20.6999 61.3189 19.2489 59.8517C17.798 58.3846 16.9789 56.3936 16.9712 54.3148V49.63C16.9712 49.0402 17.2021 48.4745 17.613 48.0575C18.0238 47.6404 18.5811 47.4062 19.1622 47.4062C19.7433 47.4062 20.3006 47.6404 20.7115 48.0575C21.1224 48.4745 21.3532 49.0402 21.3532 49.63V54.3148C21.4311 55.1605 21.8173 55.9462 22.4359 56.5181C23.0546 57.0901 23.8613 57.407 24.6981 57.407C25.5349 57.407 26.3416 57.0901 26.9603 56.5181C27.579 55.9462 27.9651 55.1605 28.0431 54.3148V23.9227C28.0431 23.3329 28.2739 22.7672 28.6848 22.3502C29.0957 21.9331 29.653 21.6989 30.234 21.6989C30.8151 21.6989 31.3724 21.9331 31.7833 22.3502C32.1942 22.7672 32.425 23.3329 32.425 23.9227V54.1962C32.4366 55.2331 32.2459 56.262 31.8638 57.2236C31.4818 58.1853 30.916 59.0607 30.1991 59.7994C29.4822 60.5381 28.6283 61.1254 27.6867 61.5276C26.745 61.9298 25.7343 62.1388 24.7127 62.1427Z" fill="url(#paint1_linear_2_11725)"/>
<g filter="url(#filter0_bi_2_11725)">
<path d="M49.3396 23.9227C51.8352 23.8584 54.3036 24.4617 56.4968 25.6721C56.7145 25.8105 56.9675 25.8811 57.2243 25.8752C57.4811 25.8693 57.7306 25.7871 57.9419 25.6389C58.1532 25.4906 58.3171 25.2828 58.4133 25.041C58.5096 24.7993 58.5339 24.5342 58.4833 24.2785C57.3625 17.4925 53.9079 11.3294 48.7331 6.88432C43.5584 2.43925 36.9987 0 30.2195 0C23.4403 0 16.8806 2.43925 11.7058 6.88432C6.53111 11.3294 3.07641 17.4925 1.95562 24.2785C1.91366 24.5353 1.94494 24.7989 2.04579 25.0382C2.14665 25.2775 2.31287 25.4825 2.52481 25.629C2.73674 25.7755 2.98554 25.8574 3.24185 25.8651C3.49817 25.8727 3.7513 25.8058 3.97134 25.6721C6.16455 24.4617 8.63293 23.8584 11.1286 23.9227C14.2298 23.784 17.2675 24.8435 19.6297 26.8878C19.7612 27.0393 19.9231 27.1605 20.1044 27.2436C20.2857 27.3267 20.4824 27.3697 20.6813 27.3697C20.8803 27.3697 21.077 27.3267 21.2583 27.2436C21.4396 27.1605 21.6014 27.0393 21.733 26.8878C24.2003 25.0566 27.1776 24.0696 30.2341 24.0696C33.2906 24.0696 36.2679 25.0566 38.7351 26.8878C38.8667 27.0393 39.0286 27.1605 39.2099 27.2436C39.3912 27.3267 39.5879 27.3697 39.7868 27.3697C39.9857 27.3697 40.1824 27.3267 40.3637 27.2436C40.5451 27.1605 40.7069 27.0393 40.8385 26.8878C43.2006 24.8435 46.2383 23.784 49.3396 23.9227Z" fill="#F1F1F1" fill-opacity="0.1"/>
<path d="M49.3396 23.9227C51.8352 23.8584 54.3036 24.4617 56.4968 25.6721C56.7145 25.8105 56.9675 25.8811 57.2243 25.8752C57.4811 25.8693 57.7306 25.7871 57.9419 25.6389C58.1532 25.4906 58.3171 25.2828 58.4133 25.041C58.5096 24.7993 58.5339 24.5342 58.4833 24.2785C57.3625 17.4925 53.9079 11.3294 48.7331 6.88432C43.5584 2.43925 36.9987 0 30.2195 0C23.4403 0 16.8806 2.43925 11.7058 6.88432C6.53111 11.3294 3.07641 17.4925 1.95562 24.2785C1.91366 24.5353 1.94494 24.7989 2.04579 25.0382C2.14665 25.2775 2.31287 25.4825 2.52481 25.629C2.73674 25.7755 2.98554 25.8574 3.24185 25.8651C3.49817 25.8727 3.7513 25.8058 3.97134 25.6721C6.16455 24.4617 8.63293 23.8584 11.1286 23.9227C14.2298 23.784 17.2675 24.8435 19.6297 26.8878C19.7612 27.0393 19.9231 27.1605 20.1044 27.2436C20.2857 27.3267 20.4824 27.3697 20.6813 27.3697C20.8803 27.3697 21.077 27.3267 21.2583 27.2436C21.4396 27.1605 21.6014 27.0393 21.733 26.8878C24.2003 25.0566 27.1776 24.0696 30.2341 24.0696C33.2906 24.0696 36.2679 25.0566 38.7351 26.8878C38.8667 27.0393 39.0286 27.1605 39.2099 27.2436C39.3912 27.3267 39.5879 27.3697 39.7868 27.3697C39.9857 27.3697 40.1824 27.3267 40.3637 27.2436C40.5451 27.1605 40.7069 27.0393 40.8385 26.8878C43.2006 24.8435 46.2383 23.784 49.3396 23.9227Z" fill="url(#paint2_linear_2_11725)" fill-opacity="0.1"/>
<path d="M56.6577 25.4189L56.6499 25.4139L56.6418 25.4095C54.4051 24.1751 51.8879 23.5588 49.3424 23.6226C46.1677 23.4833 43.0592 24.5692 40.6422 26.661L40.626 26.6749L40.612 26.691C40.5083 26.8104 40.381 26.9057 40.2388 26.9709C40.0966 27.036 39.9425 27.0697 39.7868 27.0697C39.6311 27.0697 39.4771 27.036 39.3349 26.9709C39.1926 26.9057 39.0653 26.8104 38.9616 26.691L38.9402 26.6664L38.9139 26.6469C36.3952 24.7776 33.3554 23.7696 30.2341 23.7696C27.1128 23.7696 24.0729 24.7776 21.5542 26.6469L21.528 26.6664L21.5066 26.691C21.4028 26.8104 21.2756 26.9057 21.1333 26.9709C20.9911 27.036 20.837 27.0697 20.6813 27.0697C20.5256 27.0697 20.3716 27.036 20.2294 26.9709C20.0871 26.9057 19.9598 26.8104 19.8561 26.691L19.8421 26.6749L19.826 26.661C17.4089 24.5692 14.3005 23.4833 11.1258 23.6226C8.58021 23.5588 6.06301 24.1751 3.82638 25.4095L3.82626 25.4092L3.81561 25.4157C3.64489 25.5194 3.44892 25.5711 3.2508 25.5652C3.05266 25.5593 2.85995 25.496 2.69541 25.3822C2.53082 25.2684 2.40111 25.1088 2.32224 24.9216L2.04579 25.0382L2.32224 24.9216C2.24339 24.7345 2.21883 24.5282 2.25166 24.3271C3.36113 17.61 6.78059 11.5106 11.9013 7.11189C17.022 2.71323 23.5125 0.3 30.2195 0.3C36.9265 0.3 43.417 2.71323 48.5377 7.11189C53.6585 11.5106 57.0779 17.6102 58.1873 24.3274L58.1872 24.3274L58.189 24.3367C58.2284 24.5357 58.2094 24.7421 58.1346 24.9301C58.0598 25.118 57.9327 25.2789 57.7696 25.3933C57.6066 25.5076 57.4146 25.5707 57.2174 25.5752C57.0201 25.5798 56.8256 25.5256 56.6577 25.4189Z" stroke="#F1F1F1" stroke-opacity="0.1" stroke-width="0.6"/>
<path d="M56.6577 25.4189L56.6499 25.4139L56.6418 25.4095C54.4051 24.1751 51.8879 23.5588 49.3424 23.6226C46.1677 23.4833 43.0592 24.5692 40.6422 26.661L40.626 26.6749L40.612 26.691C40.5083 26.8104 40.381 26.9057 40.2388 26.9709C40.0966 27.036 39.9425 27.0697 39.7868 27.0697C39.6311 27.0697 39.4771 27.036 39.3349 26.9709C39.1926 26.9057 39.0653 26.8104 38.9616 26.691L38.9402 26.6664L38.9139 26.6469C36.3952 24.7776 33.3554 23.7696 30.2341 23.7696C27.1128 23.7696 24.0729 24.7776 21.5542 26.6469L21.528 26.6664L21.5066 26.691C21.4028 26.8104 21.2756 26.9057 21.1333 26.9709C20.9911 27.036 20.837 27.0697 20.6813 27.0697C20.5256 27.0697 20.3716 27.036 20.2294 26.9709C20.0871 26.9057 19.9598 26.8104 19.8561 26.691L19.8421 26.6749L19.826 26.661C17.4089 24.5692 14.3005 23.4833 11.1258 23.6226C8.58021 23.5588 6.06301 24.1751 3.82638 25.4095L3.82626 25.4092L3.81561 25.4157C3.64489 25.5194 3.44892 25.5711 3.2508 25.5652C3.05266 25.5593 2.85995 25.496 2.69541 25.3822C2.53082 25.2684 2.40111 25.1088 2.32224 24.9216L2.04579 25.0382L2.32224 24.9216C2.24339 24.7345 2.21883 24.5282 2.25166 24.3271C3.36113 17.61 6.78059 11.5106 11.9013 7.11189C17.022 2.71323 23.5125 0.3 30.2195 0.3C36.9265 0.3 43.417 2.71323 48.5377 7.11189C53.6585 11.5106 57.0779 17.6102 58.1873 24.3274L58.1872 24.3274L58.189 24.3367C58.2284 24.5357 58.2094 24.7421 58.1346 24.9301C58.0598 25.118 57.9327 25.2789 57.7696 25.3933C57.6066 25.5076 57.4146 25.5707 57.2174 25.5752C57.0201 25.5798 56.8256 25.5256 56.6577 25.4189Z" stroke="url(#paint3_linear_2_11725)" stroke-opacity="0.1" stroke-width="0.6"/>
</g>
<g filter="url(#filter1_bd_2_11725)">
<path d="M39.4654 12.0624C37.7718 7.79647 34.5895 4.31314 30.5261 2.27759H30.234H29.971H29.7081H29.416C25.6234 4.45086 22.6989 7.90173 21.1487 12.0328C20.0119 15.0607 19.3609 18.2541 19.2206 21.4914C19.2206 21.8845 19.3745 22.2617 19.6484 22.5397C19.9223 22.8177 20.2939 22.9739 20.6812 22.9739C20.8717 22.9778 21.0609 22.9432 21.238 22.872C21.4151 22.8007 21.5763 22.6943 21.7124 22.559C21.8484 22.4237 21.9564 22.2622 22.0302 22.084C22.104 21.9057 22.1419 21.7143 22.1419 21.521C22.2819 18.6278 22.8735 15.7754 23.8947 13.0705C25.0992 9.87352 27.2795 7.15139 30.1171 5.30199C33.1712 7.03759 35.5514 9.77767 36.8654 13.0705C37.8878 15.7738 38.47 18.6279 38.589 21.521C38.6038 21.9066 38.7634 22.2719 39.0349 22.542C39.3065 22.8121 39.6695 22.9666 40.0497 22.9739C40.2401 22.9739 40.4287 22.9354 40.6043 22.8606C40.7799 22.7857 40.939 22.676 41.0723 22.5379C41.2056 22.3999 41.3105 22.2362 41.3807 22.0565C41.4509 21.8768 41.485 21.6846 41.4811 21.4914C41.3209 18.2577 40.64 15.0726 39.4654 12.0624Z" fill="url(#paint4_linear_2_11725)"/>
<path d="M21.2593 12.0743L21.2593 12.0743C22.7962 7.9786 25.6923 4.55607 29.4475 2.39571H29.7081H29.971H30.234H30.4981C34.5232 4.41981 37.6758 7.87522 39.3554 12.1055C40.5251 15.1033 41.2033 18.2752 41.363 21.4954C41.3664 21.6727 41.335 21.8488 41.2706 22.0135C41.2061 22.1787 41.1098 22.3291 40.9873 22.4559C40.8649 22.5826 40.7189 22.6833 40.558 22.7519C40.3973 22.8204 40.225 22.8557 40.0508 22.8558C39.7018 22.8488 39.3681 22.7068 39.1182 22.4583C38.868 22.2094 38.7207 21.8725 38.707 21.5165L38.707 21.5162C38.5875 18.6105 38.0028 15.7438 36.9759 13.0287L36.9759 13.0287L36.9751 13.0267C35.6513 9.70925 33.2531 6.94827 30.1755 5.19929L30.1129 5.16373L30.0526 5.20303C27.1938 7.06628 24.9974 9.80858 23.7842 13.0289C22.7586 15.7453 22.1645 18.6098 22.0239 21.5153L22.0238 21.5153L22.0238 21.5211C22.0238 21.6989 21.9889 21.8749 21.9211 22.0388C21.8532 22.2027 21.754 22.351 21.6291 22.4753C21.5042 22.5995 21.3562 22.6971 21.1939 22.7624C21.0316 22.8277 20.8582 22.8594 20.6837 22.8558L20.6837 22.8558H20.6812C20.3258 22.8558 19.9845 22.7125 19.7326 22.4568C19.4812 22.2016 19.3394 21.8554 19.3387 21.4939C19.4787 18.27 20.1271 15.0897 21.2593 12.0743Z" stroke="url(#paint5_linear_2_11725)" stroke-opacity="0.5" stroke-width="0.236249"/>
</g>
</g>
<defs>
<filter id="filter0_bi_2_11725" x="-7.8125" y="-9.75" width="76.0715" height="46.8696" filterUnits="userSpaceOnUse" color-interpolation-filters="sRGB">
<feFlood flood-opacity="0" result="BackgroundImageFix"/>
<feGaussianBlur in="BackgroundImageFix" stdDeviation="4.875"/>
<feComposite in2="SourceAlpha" operator="in" result="effect1_backgroundBlur_2_11725"/>
<feBlend mode="normal" in="SourceGraphic" in2="effect1_backgroundBlur_2_11725" result="shape"/>
<feColorMatrix in="SourceAlpha" type="matrix" values="0 0 0 0 0 0 0 0 0 0 0 0 0 0 0 0 0 0 127 0" result="hardAlpha"/>
<feOffset dy="1.625"/>
<feGaussianBlur stdDeviation="3.25"/>
<feComposite in2="hardAlpha" operator="arithmetic" k2="-1" k3="1"/>
<feColorMatrix type="matrix" values="0 0 0 0 1 0 0 0 0 1 0 0 0 0 1 0 0 0 0.4 0"/>
<feBlend mode="normal" in2="shape" result="effect2_innerShadow_2_11725"/>
</filter>
<filter id="filter1_bd_2_11725" x="1.50187" y="-15.4411" width="57.6982" height="56.1341" filterUnits="userSpaceOnUse" color-interpolation-filters="sRGB">
<feFlood flood-opacity="0" result="BackgroundImageFix"/>
<feGaussianBlur in="BackgroundImageFix" stdDeviation="8.85935"/>
<feComposite in2="SourceAlpha" operator="in" result="effect1_backgroundBlur_2_11725"/>
<feColorMatrix in="SourceAlpha" type="matrix" values="0 0 0 0 0 0 0 0 0 0 0 0 0 0 0 0 0 0 127 0" result="hardAlpha"/>
<feOffset dy="2"/>
<feGaussianBlur stdDeviation="2.5"/>
<feColorMatrix type="matrix" values="0 0 0 0 0.209693 0 0 0 0 0.342814 0 0 0 0 0.444613 0 0 0 0.28 0"/>
<feBlend mode="normal" in2="effect1_backgroundBlur_2_11725" result="effect2_dropShadow_2_11725"/>
<feBlend mode="normal" in="SourceGraphic" in2="effect2_dropShadow_2_11725" result="shape"/>
</filter>
<linearGradient id="paint0_linear_2_11725" x1="6.17749" y1="11.2206" x2="62.3926" y2="27.48" gradientUnits="userSpaceOnUse">
<stop stop-color="#41649F"/>
<stop offset="1" stop-color="#C0D8FF"/>
</linearGradient>
<linearGradient id="paint1_linear_2_11725" x1="17.6151" y1="29.7876" x2="34.7384" y2="30.6964" gradientUnits="userSpaceOnUse">
<stop stop-color="#41649F"/>
<stop offset="1" stop-color="#C0D8FF"/>
</linearGradient>
<linearGradient id="paint2_linear_2_11725" x1="1.9375" y1="-0.0981666" x2="42.1062" y2="42.4771" gradientUnits="userSpaceOnUse">
<stop stop-color="#4B6DA6"/>
<stop offset="1" stop-color="#B2CAF4"/>
</linearGradient>
<linearGradient id="paint3_linear_2_11725" x1="1.9375" y1="-0.0981666" x2="42.1062" y2="42.4771" gradientUnits="userSpaceOnUse">
<stop stop-color="#4A6CA6"/>
<stop offset="1" stop-color="#B2CBF4"/>
</linearGradient>
<linearGradient id="paint4_linear_2_11725" x1="39.9031" y1="6.01498" x2="15.1108" y2="6.88441" gradientUnits="userSpaceOnUse">
<stop stop-color="white"/>
<stop offset="1" stop-color="white" stop-opacity="0.2"/>
</linearGradient>
<linearGradient id="paint5_linear_2_11725" x1="21.6186" y1="9.2203" x2="40.521" y2="9.33253" gradientUnits="userSpaceOnUse">
<stop stop-color="white"/>
<stop offset="1" stop-color="white" stop-opacity="0"/>
</linearGradient>
<clipPath id="clip0_2_11725">
<rect width="62" height="62" fill="white"/>
</clipPath>
</defs>
</svg>
