<svg width="62" height="62" viewBox="0 0 62 62" fill="none" xmlns="http://www.w3.org/2000/svg">
<g clip-path="url(#clip0_2_11711)">
<path d="M32.3795 7.27279L6.51242 15.1684C1.69053 16.6402 -1.05754 21.8511 0.37443 26.8072L8.05624 53.3941C9.48821 58.3502 14.558 61.1748 19.3799 59.7029L45.2469 51.8073C50.0688 50.3355 52.8169 45.1246 51.3849 40.1686L43.7031 13.5816C42.2711 8.62552 37.2014 5.80096 32.3795 7.27279Z" fill="url(#paint0_linear_2_11711)"/>
<g filter="url(#filter0_bi_2_11711)">
<path d="M52.8924 0H21.0438C16.0138 0 11.9362 4.19113 11.9362 9.36114V42.0961C11.9362 47.2661 16.0138 51.4572 21.0438 51.4572H52.8924C57.9224 51.4572 62 47.2661 62 42.0961V9.36114C62 4.19113 57.9224 0 52.8924 0Z" fill="#F1F1F1" fill-opacity="0.1"/>
<path d="M52.8924 0H21.0438C16.0138 0 11.9362 4.19113 11.9362 9.36114V42.0961C11.9362 47.2661 16.0138 51.4572 21.0438 51.4572H52.8924C57.9224 51.4572 62 47.2661 62 42.0961V9.36114C62 4.19113 57.9224 0 52.8924 0Z" fill="url(#paint1_linear_2_11711)" fill-opacity="0.1"/>
<path d="M21.0438 0.3H52.8924C57.749 0.3 61.7 4.349 61.7 9.36114V42.0961C61.7 47.1082 57.749 51.1572 52.8924 51.1572H21.0438C16.1872 51.1572 12.2362 47.1082 12.2362 42.0961V9.36114C12.2362 4.349 16.1872 0.3 21.0438 0.3Z" stroke="#F1F1F1" stroke-opacity="0.1" stroke-width="0.6"/>
<path d="M21.0438 0.3H52.8924C57.749 0.3 61.7 4.349 61.7 9.36114V42.0961C61.7 47.1082 57.749 51.1572 52.8924 51.1572H21.0438C16.1872 51.1572 12.2362 47.1082 12.2362 42.0961V9.36114C12.2362 4.349 16.1872 0.3 21.0438 0.3Z" stroke="url(#paint2_linear_2_11711)" stroke-opacity="0.1" stroke-width="0.6"/>
</g>
<g filter="url(#filter1_bd_2_11711)">
<path d="M23.9289 26.281H22.5995C21.1624 26.281 19.9973 27.4785 19.9973 28.9556V37.9679C19.9973 39.4451 21.1624 40.6425 22.5995 40.6425H23.9289C25.366 40.6425 26.5311 39.4451 26.5311 37.9679V28.9556C26.5311 27.4785 25.366 26.281 23.9289 26.281Z" fill="url(#paint3_linear_2_11711)"/>
<path d="M22.5995 26.3991H23.9289C25.2978 26.3991 26.4129 27.5406 26.4129 28.9556V37.9679C26.4129 39.3829 25.2978 40.5244 23.9289 40.5244H22.5995C21.2306 40.5244 20.1154 39.3829 20.1154 37.9679V28.9556C20.1154 27.5406 21.2306 26.3991 22.5995 26.3991Z" stroke="url(#paint4_linear_2_11711)" stroke-opacity="0.5" stroke-width="0.236249"/>
</g>
<g filter="url(#filter2_bd_2_11711)">
<path d="M33.0647 20.5248H31.7354C30.2982 20.5248 29.1332 21.7222 29.1332 23.1994V37.997C29.1332 39.4741 30.2982 40.6716 31.7354 40.6716H33.0647C34.5019 40.6716 35.6669 39.4741 35.6669 37.997V23.1994C35.6669 21.7222 34.5019 20.5248 33.0647 20.5248Z" fill="url(#paint5_linear_2_11711)"/>
<path d="M31.7354 20.6429H33.0647C34.4336 20.6429 35.5488 21.7844 35.5488 23.1994V37.997C35.5488 39.412 34.4336 40.5535 33.0647 40.5535H31.7354C30.3665 40.5535 29.2513 39.412 29.2513 37.997V23.1994C29.2513 21.7844 30.3665 20.6429 31.7354 20.6429Z" stroke="url(#paint6_linear_2_11711)" stroke-opacity="0.5" stroke-width="0.236249"/>
</g>
<g filter="url(#filter3_bd_2_11711)">
<path d="M42.2007 23.5773H40.8714C39.4342 23.5773 38.2692 24.7747 38.2692 26.2519V37.9969C38.2692 39.4741 39.4342 40.6715 40.8714 40.6715H42.2007C43.6379 40.6715 44.8029 39.4741 44.8029 37.9969V26.2519C44.8029 24.7747 43.6379 23.5773 42.2007 23.5773Z" fill="url(#paint7_linear_2_11711)"/>
<path d="M40.8714 23.6954H42.2007C43.5696 23.6954 44.6848 24.8369 44.6848 26.2519V37.9969C44.6848 39.4119 43.5696 40.5534 42.2007 40.5534H40.8714C39.5025 40.5534 38.3873 39.4119 38.3873 37.9969V26.2519C38.3873 24.8369 39.5025 23.6954 40.8714 23.6954Z" stroke="url(#paint8_linear_2_11711)" stroke-opacity="0.5" stroke-width="0.236249"/>
</g>
<g filter="url(#filter4_bd_2_11711)">
<path d="M51.365 18.1699H50.0357C48.5985 18.1699 47.4335 19.3674 47.4335 20.8445V37.9969C47.4335 39.4741 48.5985 40.6716 50.0357 40.6716H51.365C52.8022 40.6716 53.9672 39.4741 53.9672 37.9969V20.8445C53.9672 19.3674 52.8022 18.1699 51.365 18.1699Z" fill="url(#paint9_linear_2_11711)"/>
<path d="M50.0357 18.288H51.365C52.7339 18.288 53.8491 19.4295 53.8491 20.8445V37.9969C53.8491 39.4119 52.7339 40.5534 51.365 40.5534H50.0357C48.6668 40.5534 47.5516 39.4119 47.5516 37.9969V20.8445C47.5516 19.4295 48.6668 18.288 50.0357 18.288Z" stroke="url(#paint10_linear_2_11711)" stroke-opacity="0.5" stroke-width="0.236249"/>
</g>
<g filter="url(#filter5_bd_2_11711)">
<path d="M23.25 23.2284C22.9483 23.229 22.6501 23.1616 22.3765 23.031C22.1028 22.9004 21.8603 22.7098 21.6661 22.4725C21.4818 22.257 21.3408 22.0062 21.251 21.7346C21.1612 21.4629 21.1244 21.1757 21.1428 20.8895C21.1612 20.6032 21.2343 20.3234 21.3581 20.0663C21.4818 19.8091 21.6538 19.5796 21.8641 19.3909L31.0283 11.2798C31.3517 10.9949 31.7503 10.8151 32.1733 10.7633C32.5963 10.7116 33.0247 10.7901 33.4042 10.9891L41.3522 15.2918L49.4416 9.15759C49.8955 8.81448 50.4633 8.67072 51.0203 8.75796C51.5773 8.84519 52.0777 9.15626 52.4115 9.62274C52.7453 10.0892 52.8852 10.6729 52.8003 11.2453C52.7155 11.8178 52.4128 12.3322 51.9589 12.6753L42.823 19.6235C42.4979 19.8635 42.1147 20.0067 41.7155 20.0375C41.3163 20.0683 40.9165 19.9854 40.5602 19.7979L32.6405 15.4371L24.5794 22.5597C24.237 22.9509 23.7606 23.1905 23.25 23.2284Z" fill="url(#paint11_linear_2_11711)"/>
<path d="M21.7575 22.3977L21.7575 22.3977L21.7558 22.3957C21.5816 22.192 21.4481 21.9548 21.3631 21.6975C21.2781 21.4403 21.2433 21.1682 21.2607 20.897C21.2781 20.6258 21.3474 20.3609 21.4645 20.1175C21.5816 19.8743 21.7442 19.6573 21.9427 19.4791C21.9428 19.479 21.9429 19.4789 21.943 19.4788L31.1064 11.3685C31.1064 11.3684 31.1064 11.3684 31.1064 11.3684C31.4122 11.099 31.7886 10.9294 32.1876 10.8806C32.5864 10.8318 32.9905 10.9057 33.3487 11.0934C33.3489 11.0935 33.3491 11.0936 33.3493 11.0937L41.2959 15.3956L41.3629 15.4319L41.4235 15.3859L49.5129 9.25181C49.9414 8.92782 50.477 8.79244 51.002 8.87466C51.5271 8.95689 51.9997 9.25027 52.3154 9.69148C52.6312 10.1328 52.7639 10.6856 52.6835 11.228C52.6031 11.7704 52.3164 12.257 51.8877 12.5811L51.8874 12.5813L42.7529 19.5284C42.7527 19.5286 42.7524 19.5287 42.7522 19.5289C42.4449 19.7556 42.083 19.8907 41.7064 19.9197C41.3299 19.9487 40.9527 19.8707 40.6162 19.6939C40.6159 19.6937 40.6155 19.6935 40.6152 19.6934L32.6975 15.3336L32.6246 15.2935L32.5623 15.3486L24.5012 22.4712L24.4955 22.4762L24.4905 22.4819C24.1691 22.849 23.723 23.0737 23.2455 23.1103C22.963 23.1102 22.6838 23.0468 22.4273 22.9244C22.1695 22.8014 21.9408 22.6217 21.7575 22.3977Z" stroke="url(#paint12_linear_2_11711)" stroke-opacity="0.5" stroke-width="0.236249"/>
</g>
</g>
<defs>
<filter id="filter0_bi_2_11711" x="2.18616" y="-9.75" width="69.5638" height="70.9573" filterUnits="userSpaceOnUse" color-interpolation-filters="sRGB">
<feFlood flood-opacity="0" result="BackgroundImageFix"/>
<feGaussianBlur in="BackgroundImageFix" stdDeviation="4.875"/>
<feComposite in2="SourceAlpha" operator="in" result="effect1_backgroundBlur_2_11711"/>
<feBlend mode="normal" in="SourceGraphic" in2="effect1_backgroundBlur_2_11711" result="shape"/>
<feColorMatrix in="SourceAlpha" type="matrix" values="0 0 0 0 0 0 0 0 0 0 0 0 0 0 0 0 0 0 127 0" result="hardAlpha"/>
<feOffset dy="1.625"/>
<feGaussianBlur stdDeviation="3.25"/>
<feComposite in2="hardAlpha" operator="arithmetic" k2="-1" k3="1"/>
<feColorMatrix type="matrix" values="0 0 0 0 1 0 0 0 0 1 0 0 0 0 1 0 0 0 0.4 0"/>
<feBlend mode="normal" in2="shape" result="effect2_innerShadow_2_11711"/>
</filter>
<filter id="filter1_bd_2_11711" x="2.27861" y="8.5623" width="41.9712" height="49.7989" filterUnits="userSpaceOnUse" color-interpolation-filters="sRGB">
<feFlood flood-opacity="0" result="BackgroundImageFix"/>
<feGaussianBlur in="BackgroundImageFix" stdDeviation="8.85935"/>
<feComposite in2="SourceAlpha" operator="in" result="effect1_backgroundBlur_2_11711"/>
<feColorMatrix in="SourceAlpha" type="matrix" values="0 0 0 0 0 0 0 0 0 0 0 0 0 0 0 0 0 0 127 0" result="hardAlpha"/>
<feOffset dy="2"/>
<feGaussianBlur stdDeviation="2.5"/>
<feColorMatrix type="matrix" values="0 0 0 0 0.209693 0 0 0 0 0.342814 0 0 0 0 0.444613 0 0 0 0.28 0"/>
<feBlend mode="normal" in2="effect1_backgroundBlur_2_11711" result="effect2_dropShadow_2_11711"/>
<feBlend mode="normal" in="SourceGraphic" in2="effect2_dropShadow_2_11711" result="shape"/>
</filter>
<filter id="filter2_bd_2_11711" x="11.4145" y="2.80607" width="41.9712" height="55.5843" filterUnits="userSpaceOnUse" color-interpolation-filters="sRGB">
<feFlood flood-opacity="0" result="BackgroundImageFix"/>
<feGaussianBlur in="BackgroundImageFix" stdDeviation="8.85935"/>
<feComposite in2="SourceAlpha" operator="in" result="effect1_backgroundBlur_2_11711"/>
<feColorMatrix in="SourceAlpha" type="matrix" values="0 0 0 0 0 0 0 0 0 0 0 0 0 0 0 0 0 0 127 0" result="hardAlpha"/>
<feOffset dy="2"/>
<feGaussianBlur stdDeviation="2.5"/>
<feColorMatrix type="matrix" values="0 0 0 0 0.209693 0 0 0 0 0.342814 0 0 0 0 0.444613 0 0 0 0.28 0"/>
<feBlend mode="normal" in2="effect1_backgroundBlur_2_11711" result="effect2_dropShadow_2_11711"/>
<feBlend mode="normal" in="SourceGraphic" in2="effect2_dropShadow_2_11711" result="shape"/>
</filter>
<filter id="filter3_bd_2_11711" x="20.5505" y="5.85856" width="41.9712" height="52.5317" filterUnits="userSpaceOnUse" color-interpolation-filters="sRGB">
<feFlood flood-opacity="0" result="BackgroundImageFix"/>
<feGaussianBlur in="BackgroundImageFix" stdDeviation="8.85935"/>
<feComposite in2="SourceAlpha" operator="in" result="effect1_backgroundBlur_2_11711"/>
<feColorMatrix in="SourceAlpha" type="matrix" values="0 0 0 0 0 0 0 0 0 0 0 0 0 0 0 0 0 0 127 0" result="hardAlpha"/>
<feOffset dy="2"/>
<feGaussianBlur stdDeviation="2.5"/>
<feColorMatrix type="matrix" values="0 0 0 0 0.209693 0 0 0 0 0.342814 0 0 0 0 0.444613 0 0 0 0.28 0"/>
<feBlend mode="normal" in2="effect1_backgroundBlur_2_11711" result="effect2_dropShadow_2_11711"/>
<feBlend mode="normal" in="SourceGraphic" in2="effect2_dropShadow_2_11711" result="shape"/>
</filter>
<filter id="filter4_bd_2_11711" x="29.7148" y="0.451214" width="41.9712" height="57.939" filterUnits="userSpaceOnUse" color-interpolation-filters="sRGB">
<feFlood flood-opacity="0" result="BackgroundImageFix"/>
<feGaussianBlur in="BackgroundImageFix" stdDeviation="8.85935"/>
<feComposite in2="SourceAlpha" operator="in" result="effect1_backgroundBlur_2_11711"/>
<feColorMatrix in="SourceAlpha" type="matrix" values="0 0 0 0 0 0 0 0 0 0 0 0 0 0 0 0 0 0 127 0" result="hardAlpha"/>
<feOffset dy="2"/>
<feGaussianBlur stdDeviation="2.5"/>
<feColorMatrix type="matrix" values="0 0 0 0 0.209693 0 0 0 0 0.342814 0 0 0 0 0.444613 0 0 0 0.28 0"/>
<feBlend mode="normal" in2="effect1_backgroundBlur_2_11711" result="effect2_dropShadow_2_11711"/>
<feBlend mode="normal" in="SourceGraphic" in2="effect2_dropShadow_2_11711" result="shape"/>
</filter>
<filter id="filter5_bd_2_11711" x="3.41948" y="-8.98568" width="67.1238" height="49.9328" filterUnits="userSpaceOnUse" color-interpolation-filters="sRGB">
<feFlood flood-opacity="0" result="BackgroundImageFix"/>
<feGaussianBlur in="BackgroundImageFix" stdDeviation="8.85935"/>
<feComposite in2="SourceAlpha" operator="in" result="effect1_backgroundBlur_2_11711"/>
<feColorMatrix in="SourceAlpha" type="matrix" values="0 0 0 0 0 0 0 0 0 0 0 0 0 0 0 0 0 0 127 0" result="hardAlpha"/>
<feOffset dy="2"/>
<feGaussianBlur stdDeviation="2.5"/>
<feColorMatrix type="matrix" values="0 0 0 0 0.209693 0 0 0 0 0.342814 0 0 0 0 0.444613 0 0 0 0.28 0"/>
<feBlend mode="normal" in2="effect1_backgroundBlur_2_11711" result="effect2_dropShadow_2_11711"/>
<feBlend mode="normal" in="SourceGraphic" in2="effect2_dropShadow_2_11711" result="shape"/>
</filter>
<linearGradient id="paint0_linear_2_11711" x1="2.16047" y1="26.1892" x2="51.3997" y2="18.916" gradientUnits="userSpaceOnUse">
<stop stop-color="#41649F"/>
<stop offset="1" stop-color="#C0D8FF"/>
</linearGradient>
<linearGradient id="paint1_linear_2_11711" x1="11.9362" y1="-0.184561" x2="72.3753" y2="29.9689" gradientUnits="userSpaceOnUse">
<stop stop-color="#4B6DA6"/>
<stop offset="1" stop-color="#B2CAF4"/>
</linearGradient>
<linearGradient id="paint2_linear_2_11711" x1="11.9362" y1="-0.184561" x2="72.3753" y2="29.9689" gradientUnits="userSpaceOnUse">
<stop stop-color="#4A6CA6"/>
<stop offset="1" stop-color="#B2CBF4"/>
</linearGradient>
<linearGradient id="paint3_linear_2_11711" x1="26.0678" y1="28.8744" x2="18.7837" y2="28.9825" gradientUnits="userSpaceOnUse">
<stop stop-color="white"/>
<stop offset="1" stop-color="white" stop-opacity="0.2"/>
</linearGradient>
<linearGradient id="paint4_linear_2_11711" x1="20.7011" y1="31.0986" x2="26.2493" y2="31.1125" gradientUnits="userSpaceOnUse">
<stop stop-color="white"/>
<stop offset="1" stop-color="white" stop-opacity="0"/>
</linearGradient>
<linearGradient id="paint5_linear_2_11711" x1="35.2037" y1="24.1629" x2="27.9188" y2="24.2399" gradientUnits="userSpaceOnUse">
<stop stop-color="white"/>
<stop offset="1" stop-color="white" stop-opacity="0.2"/>
</linearGradient>
<linearGradient id="paint6_linear_2_11711" x1="29.837" y1="27.2831" x2="35.3852" y2="27.293" gradientUnits="userSpaceOnUse">
<stop stop-color="white"/>
<stop offset="1" stop-color="white" stop-opacity="0"/>
</linearGradient>
<linearGradient id="paint7_linear_2_11711" x1="44.3397" y1="26.6642" x2="37.0551" y2="26.7549" gradientUnits="userSpaceOnUse">
<stop stop-color="white"/>
<stop offset="1" stop-color="white" stop-opacity="0.2"/>
</linearGradient>
<linearGradient id="paint8_linear_2_11711" x1="38.973" y1="29.3116" x2="44.5212" y2="29.3233" gradientUnits="userSpaceOnUse">
<stop stop-color="white"/>
<stop offset="1" stop-color="white" stop-opacity="0"/>
</linearGradient>
<linearGradient id="paint9_linear_2_11711" x1="53.504" y1="22.2333" x2="46.2189" y2="22.3022" gradientUnits="userSpaceOnUse">
<stop stop-color="white"/>
<stop offset="1" stop-color="white" stop-opacity="0.2"/>
</linearGradient>
<linearGradient id="paint10_linear_2_11711" x1="48.1373" y1="25.7181" x2="53.6855" y2="25.727" gradientUnits="userSpaceOnUse">
<stop stop-color="white"/>
<stop offset="1" stop-color="white" stop-opacity="0"/>
</linearGradient>
<linearGradient id="paint11_linear_2_11711" x1="50.578" y1="11.3506" x2="15.4235" y2="13.8562" gradientUnits="userSpaceOnUse">
<stop stop-color="white"/>
<stop offset="1" stop-color="white" stop-opacity="0.2"/>
</linearGradient>
<linearGradient id="paint12_linear_2_11711" x1="24.5515" y1="13.5955" x2="51.4545" y2="13.9202" gradientUnits="userSpaceOnUse">
<stop stop-color="white"/>
<stop offset="1" stop-color="white" stop-opacity="0"/>
</linearGradient>
<clipPath id="clip0_2_11711">
<rect width="62" height="62" fill="white"/>
</clipPath>
</defs>
</svg>
