<svg width="25" height="27" viewBox="0 0 25 27" fill="none" xmlns="http://www.w3.org/2000/svg">
<mask id="mask0_2_11794" style="mask-type:luminance" maskUnits="userSpaceOnUse" x="0" y="0" width="14" height="26">
<path fill-rule="evenodd" clip-rule="evenodd" d="M0 0.938477H13.8213V25.7363H0V0.938477Z" fill="white"/>
</mask>
<g mask="url(#mask0_2_11794)">
<path fill-rule="evenodd" clip-rule="evenodd" d="M13.805 12.8465C13.8103 12.8389 13.8156 12.8312 13.8213 12.8239C12.9087 11.977 11.9974 11.1287 11.0833 10.2834C8.40835 7.80975 5.73139 5.33837 3.05734 2.8638C2.36845 2.22633 1.68734 1.58042 1.00254 0.938477C1.00254 0.938477 1.00254 0.938477 1.00254 0.938532C1.00254 0.938532 1.00248 0.938532 1.00248 0.938588C0.961353 0.963846 0.92436 0.993294 0.889715 1.0252C0.835009 1.07549 0.78645 1.13199 0.73912 1.18965C0.728056 1.20312 0.717048 1.21664 0.706039 1.23011C0.195525 1.85613 -0.000779984 2.57714 2.32806e-06 3.37946C0.00676374 10.031 0.00374625 16.6824 0.00419329 23.3339C0.00419329 23.4827 -0.000165311 23.6325 0.0146986 23.7801C0.0917005 24.5456 0.366292 25.2178 0.957664 25.7363C5.22881 21.454 9.50001 17.1717 13.7709 12.8891C13.7836 12.8763 13.7943 12.8615 13.805 12.8465Z" fill="#2298F7"/>
</g>
<path fill-rule="evenodd" clip-rule="evenodd" d="M19.6194 18.1737C18.7907 17.4015 17.9632 16.6279 17.1326 15.8577C16.5471 15.3147 15.9555 14.7781 15.3696 14.2355C14.8658 13.7688 14.3663 13.2975 13.8648 12.8283C13.8502 12.8277 13.8357 12.8263 13.8213 12.824C13.8157 12.8314 13.8104 12.839 13.8049 12.8465C13.7944 12.8615 13.7837 12.8764 13.7709 12.8892C9.49999 17.1718 5.22884 21.4541 0.957642 25.7363C0.987425 25.7712 1.01414 25.8095 1.0475 25.8406C2.11586 26.839 3.67618 27.0077 5.03008 26.2605C9.20841 23.9546 13.3857 21.6467 17.5608 19.3348C17.6469 19.2871 17.7333 19.2398 17.8198 19.1928C18.4255 18.8635 19.0379 18.5459 19.6194 18.1737Z" fill="#F74438"/>
<path fill-rule="evenodd" clip-rule="evenodd" d="M19.6194 18.1736C19.0379 18.5457 18.4255 18.8634 17.8198 19.1927C18.4255 18.8634 19.0379 18.5457 19.6195 18.1736C19.6194 18.1736 19.6194 18.1736 19.6194 18.1736Z" fill="#F74438"/>
<path fill-rule="evenodd" clip-rule="evenodd" d="M13.8405 12.8517C13.8215 12.8785 13.8023 12.9051 13.7795 12.928C13.8023 12.9051 13.8215 12.8785 13.8405 12.8517Z" fill="#F74438"/>
<mask id="mask1_2_11794" style="mask-type:luminance" maskUnits="userSpaceOnUse" x="1" y="0" width="18" height="13">
<path fill-rule="evenodd" clip-rule="evenodd" d="M1.00256 0H18.6361V12.8282H1.00256V0Z" fill="white"/>
</mask>
<g mask="url(#mask1_2_11794)">
<path fill-rule="evenodd" clip-rule="evenodd" d="M3.05731 2.86379C5.73136 5.33835 8.40832 7.80979 11.0833 10.2834C11.9974 11.1287 12.9087 11.9769 13.8213 12.8239C13.8357 12.8262 13.8502 12.8276 13.8648 12.8282C13.9788 12.7064 14.0898 12.5815 14.2073 12.4632C15.683 10.9782 17.1596 9.49411 18.6361 8.00973C18.5597 7.95871 18.4865 7.90188 18.4063 7.85751C15.5125 6.25489 12.6181 4.65327 9.72361 3.05182C8.15441 2.18362 6.58554 1.31481 5.01532 0.448343C4.71799 0.284337 4.40428 0.166152 4.08566 0.0924468C3.03864 -0.149679 1.9381 0.0881441 1.18954 0.754898C1.16746 0.774567 1.14617 0.795075 1.12477 0.815471C1.11455 0.825138 1.10398 0.834414 1.09393 0.844249C1.06275 0.874871 1.03229 0.906275 1.00256 0.938518C1.68731 1.58046 2.36843 2.22632 3.05731 2.86379Z" fill="#5ACE5F"/>
</g>
<path fill-rule="evenodd" clip-rule="evenodd" d="M11.0833 10.2834C11.9973 11.1287 12.9087 11.977 13.8212 12.824C12.9087 11.977 11.9973 11.1287 11.0833 10.2834Z" fill="#5ACE5F"/>
<path fill-rule="evenodd" clip-rule="evenodd" d="M23.4871 10.6983C22.4871 10.0735 21.4335 9.53393 20.3996 8.96408C20.1801 8.8431 19.9627 8.71815 19.7447 8.59438C19.3813 8.38807 19.0161 8.18517 18.6361 8.00977C17.1596 9.49409 15.683 10.9782 14.2073 12.4632C14.0897 12.5815 13.9787 12.7064 13.8647 12.8282C14.3662 13.2975 14.8658 13.7687 15.3696 14.2354C15.9554 14.7781 16.547 15.3146 17.1326 15.8576C17.9632 16.6278 18.7906 17.4015 19.6194 18.1736C20.6026 17.6632 21.5828 17.1445 22.5401 16.5884C22.8592 16.403 23.1758 16.2135 23.4891 16.0186C25.5053 14.7651 25.5026 11.9576 23.4871 10.6983Z" fill="#FEC008"/>
<path fill-rule="evenodd" clip-rule="evenodd" d="M19.6194 18.1736C20.6026 17.6632 21.5827 17.1445 22.5401 16.5884C21.5827 17.1445 20.6026 17.6632 19.6194 18.1736Z" fill="#FEC008"/>
<path fill-rule="evenodd" clip-rule="evenodd" d="M19.6194 18.1737C18.7906 17.4016 17.9632 16.6279 17.1326 15.8577C17.9632 16.6279 18.7906 17.4016 19.6194 18.1737C19.6194 18.1737 19.6194 18.1737 19.6194 18.1737Z" fill="#FEC008"/>
</svg>
