<svg width="28" height="28" viewBox="0 0 28 28" fill="none" xmlns="http://www.w3.org/2000/svg">
<path fill-rule="evenodd" clip-rule="evenodd" d="M25.6667 4.67835C24.5 5.25002 23.3567 5.48218 22.1667 5.83335C20.8588 4.35752 18.9198 4.27585 17.0567 4.97352C15.1935 5.67118 13.9732 7.37685 14 9.33335V10.5C10.2142 10.5968 6.84249 8.87252 4.66666 5.83335C4.66666 5.83335 -0.212338 14.5052 9.33333 18.6667C7.14933 20.1215 4.97116 21.1027 2.33333 21C6.19266 23.1035 10.3985 23.8268 14.0397 22.7698C18.2163 21.5565 21.6487 18.4263 22.9658 13.7375C23.3587 12.3115 23.5539 10.8382 23.5457 9.35902C23.5433 9.06852 25.3073 6.12502 25.6667 4.67718V4.67835Z" stroke="white" stroke-width="1.5" stroke-linecap="round" stroke-linejoin="round"/>
</svg>
